<svg xmlns="http://www.w3.org/2000/svg" width="3972" height="3972"><path fill="#084b43" d="M1928.49-.114h5.77q7.767.001 15.536.013c5.428.006 10.855.006 16.283.008q15.39.004 30.779.021 17.532.016 35.064.022 36.039.016 72.078.05v2c12.163 1.14 24.33 2.206 36.508 3.184l3.843.31q7.84.631 15.683 1.253c19.879 1.579 39.746 3.309 59.531 5.825 4.583.57 9.165.8 13.775 1.05 3.538.365 6.82 1.05 10.275 1.859 4.135.9 8.318 1.447 12.51 2.019l2.773.384q2.761.381 5.524.76 3.448.477 6.89.993c7.289 1.053 14.323 1.639 21.688 1.363l1 3 1.852.113c14.077 1.011 28.242 2.72 41.941 6.149 3.733.859 7.487 1.461 11.27 2.05 9.45 1.484 18.77 3.532 28.103 5.619 10.315 2.294 10.315 2.294 20.834 3.069 3.41.525 5.056 1.038 8 3l2.625-.063c3.029.057 4.534.36 7.285 1.364 5.879 2.027 11.873 3.476 17.91 4.949l3.688.907q3.85.946 7.7 1.886 3.902.953 7.802 1.914c19.903 4.94 19.903 4.94 39.99 9.043v-2h3v2h9v2h2v2h4l1 2c2.141.689 4.316 1.273 6.5 1.812q2.075.526 4.148 1.06l2.183.557c3.453.909 6.873 1.925 10.294 2.946A2586 2586 0 0 0 2555 82.187l2.606.758c4.8 1.378 9.596 2.596 14.484 3.619C2574 87 2574 87 2577 88v2l1.756.3c7.063 1.297 13.73 3.34 20.53 5.63l3.52 1.17q4.667 1.556 9.33 3.127 2.91.978 5.819 1.953c19.109 6.404 38.166 12.922 57.018 20.054q3.228 1.219 6.458 2.433c36.625 13.796 72.932 28.47 108.652 44.474q2.916 1.306 5.834 2.609c39.731 17.775 79.235 36.345 117.604 56.92 2.863 1.536 5.73 3.063 8.596 4.592a1627 1627 0 0 1 39.806 21.983q4.12 2.348 8.243 4.688c14.392 8.168 28.71 16.441 42.834 25.067l3.021 1.843c7.679 4.688 15.336 9.41 22.979 14.157l2.626 1.628c19.25 11.974 38.002 24.73 56.838 37.339a2740 2740 0 0 0 8.138 5.428 837 837 0 0 1 18.023 12.292l2.584 1.813a1899 1899 0 0 1 68.154 50.238 2184 2184 0 0 0 4.856 3.73 2259 2259 0 0 1 16.531 12.782l1.723 1.341a290 290 0 0 1 9.945 8.182l2.276 1.937a339 339 0 0 1 4.358 3.783c4.346 3.696 7.2 5.312 12.948 5.507l1 5 7 1 .75 3.312c1.359 4.01 1.623 4.784 5.25 6.688 3.077.5 6.137.602 9.25.687l2.547.104c2.067.082 4.135.147 6.203.209v8h2v4h-2l1 3c2.015.733 2.015.733 4 1v-2h2v2h3v3h-2l2 4h6l.625 3.375L3298 494c2.975 1.158 2.975 1.158 6 2 1.25 2.5 1.25 2.5 2 5 2.44 2.44 3.214 2.287 6.57 2.414l2.715.117 2.84.094 2.863.117q3.505.142 7.012.258v8l-9 1 1.766 1.582A1992 1992 0 0 1 3341 533c.6.554 1.2 1.108 1.82 1.678 7.323 6.767 14.56 13.583 21.52 20.724a128 128 0 0 0 6.26 5.702c4.684 4.086 9.078 8.43 13.466 12.83l2.539 2.535q2.64 2.64 5.277 5.282 4.01 4.017 8.03 8.024l5.154 5.159 2.4 2.393c4.161 4.178 8.167 8.43 11.996 12.915 2.535 2.898 5.284 5.571 8.038 8.258 4.09 3.991 7.941 8.1 11.679 12.425 3.136 3.573 6.422 7.003 9.696 10.45 5.107 5.402 10.178 10.822 15.121 16.375a539 539 0 0 0 4.227 4.687c4.7 5.161 9.177 10.455 13.57 15.88 3.712 4.513 7.503 9.037 11.684 13.128 1.99 2.032 3.737 4.217 5.523 6.43a737 737 0 0 0 10.5 12.625c4.905 5.776 9.721 11.619 14.5 17.5l3.063 3.75A1477 1477 0 0 1 3548 758l1.612 2.07q4.389 5.633 8.767 11.274 3.624 4.665 7.273 9.312c6.554 8.36 12.922 16.8 19.034 25.487 2.515 3.554 5.074 7.079 7.627 10.607l1.666 2.308q4.08 5.648 8.177 11.282c11.897 16.37 23.439 32.984 34.719 49.785l2.073 3.07 1.92 2.875 1.69 2.524C3644 891 3645.035 893.371 3646 896h2l.89 1.773c3.188 6.1 6.75 11.787 10.61 17.477 6.651 9.818 12.76 19.94 18.885 30.09 2.66 4.381 5.388 8.718 8.121 13.053 2.056 3.27 4.071 6.56 6.037 9.884.62 1.046.62 1.046 1.25 2.114a630 630 0 0 1 2.341 4.004c1.853 3.376 1.853 3.376 4.866 5.605l1 2h2l.367 1.934.508 2.503.492 2.497L3706 991l2 1v-2c3 0 3 0 4.688 1.312C3714 993 3714 993 3714 996h-2q.387 2.16.813 4.312l.457 2.426c.806 2.496 1.75 3.586 3.73 5.262v-2h2v2h3v3h-2c.466 4.75 1.148 8.122 4 12l2 1 1-2c1 1 1 1 1.098 3.066l-.035 2.496-.028 2.504L3728 1032h2v-2h5v2h2v7l-2 1v2h2l.332 1.863.48 2.45.458 2.425c.815 2.526 1.78 3.517 3.73 5.262l1 2h2l-.16 2.657c.177 3.688.98 5.609 2.723 8.835l1.667 3.14 1.77 3.243q1.69 3.15 3.375 6.305l1.784 3.33c6.403 12.139 12.334 24.529 18.342 36.865q1.89 3.877 3.784 7.752l2.45 5.025 1.12 2.293c2.498 5.135 4.857 10.323 7.145 15.555l2-2c2.26 3.39 1.966 4.903 1.87 8.825.224 3.742 1.748 6.786 3.38 10.112l.91 2.034c.991 2.177.991 2.177 2.84 5.029l4 1v10l2 1c.676 1.715.676 1.715 1.313 3.937 1.665 5.33 4.096 10.132 6.687 15.063l1 2h2l.219 3.805c.665 5.918 2.888 10.912 5.281 16.32q1.37 3.188 2.734 6.379c.463 1.076.925 2.153 1.4 3.262 2.137 5.061 4.132 10.174 6.116 15.296l1.12 2.875c1.361 3.499 2.72 6.999 4.069 10.503q1.242 3.22 2.499 6.435l1.37 3.555c.926 2.697.926 2.697 3.192 3.57.363 1.995.692 3.996 1 6a89 89 0 0 0 2 5c1.801 4.203 3.02 8.485 4.219 12.89.575 2.292.575 2.292 2.781 3.11.624 2.183 1.15 4.395 1.637 6.613 2.598 11.116 6.438 21.801 10.176 32.574q1.56 4.525 3.114 9.052 1.024 2.974 2.053 5.947a935 935 0 0 1 5.021 14.91l.964 2.94a986 986 0 0 1 1.787 5.533l.81 2.48.698 2.174c.694 1.985.694 1.985 2.74 3.777.125 3.625.125 3.625 0 7h4c.09 1.446.09 1.446.184 2.922l.254 3.828c.08 1.253.162 2.506.246 3.797.388 4.243 1.398 7.773 2.816 11.765.998 2.916 1.715 5.627 2.063 8.688l.437 3 2 1c.527 1.934.527 1.934.938 4.437 1.076 5.941 2.346 12.13 5.062 17.563.31 1.428.589 2.863.852 4.3 1.236 6.37 2.872 12.616 4.523 18.887l.953 3.651c1.536 5.873 3.09 11.74 4.672 17.6 1.973 7.38 3.869 14.782 5.75 22.187l.965 3.744.894 3.545.812 3.186c.544 2.726.693 5.13.579 7.9l2 1v9l2 1c.505 2.35.505 2.35.898 5.512 1.147 8.206 2.919 16.22 4.727 24.3q.494 2.224.984 4.448A4927 4927 0 0 0 3935 1598h1l1 17h2l.332 2.902c.915 7.771 2.017 15.474 3.421 23.171a907 907 0 0 1 2.733 15.915c1.21 16.456 1.21 16.456 6.514 31.012a79 79 0 0 1-.062 4.187c-.083 8.25 1.273 16.402 3.062 24.438 1.277 6.014 1.742 12.13 2.303 18.245l.232 2.52.2 2.252c.193 1.718.447 3.43.738 5.134.62 3.794 1.035 7.597 1.43 11.42l.248 2.369q.395 3.78.787 7.56.27 2.589.542 5.177a2906 2906 0 0 1 2.466 24.364q.234 2.443.458 4.887c.285 2.99.642 5.584 1.596 8.447a86 86 0 0 1-.062 4.375c-.058 5.343.409 10.532.968 15.836 1.3 12.99 1.974 26.005 2.657 39.039q.284 5.304.57 10.607a6576 6576 0 0 1 .676 12.787q.197 3.448.45 6.894c.951 13.624.906 27.247.908 40.898q.002 3.196.006 6.391.014 11.277.012 22.552 0 9.165.02 18.331c.081 35.81-.158 71.525-2.205 107.29l-.265 4.728a2327 2327 0 0 1-1.54 24.758q-.332 4.938-.652 9.876-.318 4.876-.64 9.751l-.231 3.507c-.392 5.799-.855 11.579-1.475 17.358-.233 2.39-.298 4.747-.26 7.147L3965 2175h-2l.07 2.754c.114 7.926-.334 15.439-1.5 23.3-.62 4.288-1.108 8.577-1.57 12.883-1.17 10.752-2.474 21.48-4 32.188l-.496 3.488a287 287 0 0 1-1.04 6.492c-1.492 9.078-1.857 18.089-2.122 27.277l-.096 3.153-.072 2.825c-.173 2.625-.598 5.076-1.174 7.64h-1v-10l-.586 3.734-.38 2.41q-.413 2.633-.823 5.265a369 369 0 0 1-2.336 13.403c-.932 5.436-1.077 10.814-1.25 16.313-.298 8.78-1.202 17.374-2.5 26.062l-.49 3.42-.502 3.186-.441 2.829c-.692 2.378-.692 2.378-2.235 3.763-2.354 2.61-1.862 5.23-1.898 8.662l-.04 2.089c-.041 2.205-.063 4.409-.081 6.614q-.035 3.285-.092 6.571a742 742 0 0 0-.075 5.994c-.286 3.895-1.073 6.988-2.271 10.685l2 1v2h-10l-.148 2.957-.227 3.855c-.07 1.265-.14 2.53-.21 3.833C3925 2425 3925 2425 3923 2428c-1.99 5.895-2.133 11.55-1.777 17.715L3921 2448l-3 2c-.807 3.339-.807 3.339-1.187 7.125-.16 1.281-.318 2.563-.481 3.883L3916 2464h-2l-.7 3.27-.987 4.542-.533 2.473c-.905 4.115-1.877 8.166-3.124 12.192-4.189 13.74-4.574 27.215-4.656 41.523l-7 2-.148 3.035-.227 4.027c-.07 1.311-.14 2.622-.21 3.973-.413 3.946-1.213 7.206-2.415 10.965l-2-3q-1.445 4.215-2.875 8.437l-.816 2.374c-1.588 4.703-2.875 9.356-3.841 14.227-.75 3.14-2.192 6.002-3.468 8.962-.424 1.516-.823 3.04-1.207 4.566-2.269 8.466-5.194 16.713-8.043 24.996l-.915 2.67a3478 3478 0 0 1-14.835 42.33l-.935 2.62c-7.103 19.876-14.663 39.533-22.502 59.13l-1.473 3.684c-8.059 20.138-16.334 40.16-25.09 60.004l-.833 1.893c-19.207 43.608-39.629 86.838-62.003 128.916q-1.65 3.108-3.289 6.222c-2.622 4.963-5.242 9.917-8.078 14.762l-1.101 1.885a822 822 0 0 1-3.032 5.103c-1.798 3.196-1.798 3.196-2.64 6.875-1.126 3.678-2.266 4.78-5.024 7.344a110 110 0 0 0-3.687 6.312l-1.825 3.301c-1.55 3.529-2.125 6.566-2.488 10.387l-1.825.231c-2.948 1.042-3.484 2.361-4.98 5.074l-1.51 2.694-1.56 2.876-1.609 2.894c-1.518 2.737-3.019 5.483-4.516 8.231l-2.082 3.77c-1.682 3.056-3.358 6.11-4.918 9.23h-2l-.695 2.008c-1.692 3.88-3.899 7.309-6.18 10.867-2.78 4.363-5.486 8.732-8.03 13.24-2.33 4.012-4.851 7.91-7.345 11.822l-1.815 2.855c-5.492 8.597-11.148 17.08-16.868 25.526l-1.962 2.912-1.745 2.575c-1.502 2.235-1.502 2.235-2.36 5.195h-2l-.813 2.213c-1.164 2.733-2.49 4.942-4.171 7.385l-1.813 2.647-1.953 2.817-2.027 2.947A3120 3120 0 0 1 3621 3115l-1.866 2.693c-10.554 15.211-21.22 30.356-32.525 45.022-1.765 2.274-1.765 2.274-2.609 5.285a351 351 0 0 1-3.48 3.398c-3.224 3.397-5.846 7.312-8.582 11.102l-3.66 5.031-1.719 2.367c-1.268 1.71-2.598 3.372-3.946 5.02-1.834 2.368-2.276 4.133-2.613 7.082h-3c-1.402 1.325-1.402 1.325-2.637 3.148l-1.489 2.035-1.561 2.192a2718 2718 0 0 1-3.22 4.414l-1.59 2.185c-2.558 3.448-5.307 6.73-8.077 10.01-1.541 1.916-1.541 1.916-1.946 4.157C3536 3232 3536 3232 3533 3234c-2.807 3.716-4.145 6.483-5 11-1.727 2.455-2.774 2.946-5.723 3.648-4.433 1.829-6.569 4.614-9.527 8.29l-1.602 1.92c-4.86 5.72-4.86 5.72-6.773 12.83l-.227 2.449L3504 3276l-3.437.875L3497 3278l-1 2-2.285 1.332c-7.354 4.518-12.758 12.709-17.715 19.668l1 2-1.937.312-2.063.688-1 3h2v2h4v2l2 1-2.965-.133c-8.033-.1-8.033-.1-15.035 3.356-4.282 4.3-4.282 4.3-6 9.777l-2.086 1.191c-3.84 2.384-6.52 5.414-9.539 8.746l-1.863 2.025q-2.765 3.01-5.512 6.038c-6.282 6.91-12.611 13.713-19.297 20.234a126 126 0 0 0-5.798 6.366c-4.143 4.751-8.589 9.157-13.085 13.572l-5.25 5.2a4239 4239 0 0 1-8.216 8.103 2759 2759 0 0 0-7.971 7.884l-2.503 2.447-2.297 2.287-2.03 2c-1.634 2.007-2.155 3.375-2.553 5.907l-2.268.29c-3.126.812-4.231 1.752-6.439 4.062l-2.03 2.082-2.075 2.191c-4.582 4.76-9.189 9.346-14.203 13.65-3.378 2.936-6.61 6.025-9.86 9.1-5.41 5.108-10.868 10.125-16.5 14.988-1.86 1.49-1.86 1.49-1.625 3.637l-4 2 1 2-6 1v3h2v2h4v2l2 1-3.332-.098c-9.621-.02-15.3.966-22.566 7.871L3284 3490l-1.727 1.602c-1.528 1.489-1.528 1.489-2.273 4.398a89 89 0 0 1-5 2c-2.36 2.36-2.491 3.779-3 7-1.145-.03-1.145-.03-2.312-.063-2.79-.066-2.79-.066-5.688 1.063v14c-1.684-.03-1.684-.03-3.402-.063-9.917-.183-9.917-.183-18.285 4.438l-1.981 2.152c-3.007 3.188-6.36 5.75-9.832 8.41-3.883 2.88-3.883 2.88-7.5 6.063l2 1-1 3c-.853-.1-1.707-.199-2.586-.3-4.403.387-6.772 2.369-10.039 5.112l-1.695 1.37A795 795 0 0 0 3205 3555a295 295 0 0 1-4 3l1 2-2.672.742c-3.544 1.34-5.714 2.932-8.578 5.383-4.55 3.875-4.55 3.875-6.75 3.875v14l-3.734-.098c-9.938-.029-17.412.5-25.196 7.2-3.844 5.382-3.32 10.437-3.07 16.898l-18 1-2 7h-3v2h-3v-2l-5 1-1 7-2.006-.047c-8.654.231-13.604 3.478-20.369 8.61a2762 2762 0 0 1-6.035 4.39l-2.903 2.127c-4.33 3.093-8.852 5.782-13.457 8.44-2.483 1.441-2.483 1.441-4.23 4.48l1 2c.137 3.337.043 6.659 0 10h-16v8h-8l-1-5c-4.162 1.43-7.585 3.565-11.23 5.977C3034 3674 3034 3674 3032 3674v6h-8v4h-8v8c-5.622 4.053-10.232 4.519-17.11 4.727-3.086.061-3.086.061-5.89 2.273-.73 2.563-.73 2.563-1 5l-8 1 1 3-1 4-17 1 1 3c-4.881 3.469-7.876 5.272-14 5-2.642 1.319-2.642 1.319-5 3a174 174 0 0 1-4 2v3l-2.918.184c-5.066.723-9.052 3.306-13.394 5.878q-2.398 1.398-4.801 2.786l-2.119 1.25C2920 3740 2920 3740 2918 3740v2c-.568.21-1.136.42-1.722.635-6.828 2.617-13.25 5.812-19.714 9.221-3.164 1.668-6.337 3.317-9.51 4.968l-1.989 1.036c-7.36 3.826-14.77 7.554-22.19 11.265l-1.879.943C2839.206 3781 2839.206 3781 2836 3781v2c-1.32.49-1.32.49-2.668.988l-3.52 1.324-3.48 1.301c-2.998 1.248-5.64 2.578-8.332 4.387v1l-3.875.937c-2.226.54-4.072 1.037-6.125 2.063l2 2v3h-3l-1 2-6-2v8h-8v2h-7v-2c-7.838 1.108-14.696 3.144-21.937 6.312l-2.784 1.147c-5.145 2.215-7.843 4.037-11.279 8.541-2.727.707-2.727.707-5.625.812l-2.914.145c-1.487.026-2.974.043-4.461.043v7l-14 1 1 3h-3v3l-1.83.104c-15.508.831-15.508.831-30.025 5.873C2686 3846 2686 3846 2683 3846v10l-2.412.028c-3.655.054-7.309.138-10.963.222l-3.793.043c-7.814.205-13.8 1.323-20.832 4.707q-3.465 1.155-6.939 2.288l-2.395.78-13.978 4.557-2.955.963c-13.894 4.525-27.795 9.024-41.733 13.412l-1 5-3.656.113q-2.423.099-4.844.2l-2.398.068c-5.605.253-9.94 1.411-15.102 3.619l2 1v11l-4.586.076q-8.438.142-16.874.296-3.649.065-7.298.125-5.25.088-10.5.187l-3.286.05c-4.913.096-9.628.243-14.456 1.266v2h2v4c-2.558 1.28-4.339 1.097-7.2 1.062l-3.165-.023-6.586-.078c-5.47-.04-10.663.053-16.049 1.039v3l-2.957.113-3.855.2-3.833.175c-3.592.548-4.061.974-6.355 3.512-2.05.223-2.05.223-4.312.062-4.06-.136-6.839.552-10.688 1.938q-2.494.505-5 .937c-4.47.784-8.927 1.605-13.375 2.5l-3.46.684c-3.2.722-3.2.722-5.767 2.54-3.035 1.695-4.095 1.117-7.398.339-3.004.453-3.004.453-6.125 1.312-4.28 1.058-8.54 2.065-12.875 2.875-.846.16-1.691.318-2.562.481-2.51.342-4.908.39-7.438.332v6c-8.286 2.636-15.683 3.226-24.266 3.035a65 65 0 0 0-9.171.527L2331 3945l-1-1c-8.077.178-16.07 1.552-24 3l-1 5h-2v2l-1.83-.092q-8.763-.434-17.53-.797a767 767 0 0 1-6.07-.283c-7.049-.204-13.804.856-20.743 1.964a287 287 0 0 1-17.077 2.208c-7.307.725-14.59 1.578-21.875 2.5l-3.09.388c-4.535.57-9.067 1.148-13.597 1.749-8.783 1.136-17.323 1.616-26.188 1.363v2l-2.02-.035-2.792-.028-2.708-.035c-2.847.08-5.61.276-8.443.548-9.658.896-19.335 1.544-29.01 2.225q-3.615.256-7.23.52c-42.968 3.146-85.884 4.14-128.96 4.066a5678 5678 0 0 0-19.748.007c-30.36.044-60.623-.43-90.944-2.004-6.364-.33-12.729-.624-19.094-.918-20.38-.946-40.78-1.966-61.051-4.346l-2.67-.312-5.892-.69c-14.36-1.68-28.736-3.191-43.12-4.657a3354 3354 0 0 1-16.863-1.783c-3.72-.412-3.72-.412-7.455-.558v-2l-3.168.102c-6.108-.008-12.102-.903-18.144-1.727l-3.943-.531c-13.906-1.909-27.72-4.341-41.542-6.769-7.696-1.346-15.41-2.576-23.128-3.782a507 507 0 0 1-16.762-2.917c-2.416-.456-2.416-.456-5.313-.376v-2l-1.837-.15c-6.147-.553-12.093-1.51-18.128-2.784l-2.83-.585q-4.572-.951-9.142-1.919l-3.207-.673c-32.973-6.93-65.711-14.73-98.362-23.043l-2.98-.755q-2.751-.696-5.5-1.403c-3.662-.927-7.179-1.71-10.931-2.211C1459 3903 1459 3903 1456 3901c-3.116-1.074-6.312-1.856-9.5-2.688l-2.629-.72-2.527-.666-2.307-.612c-2.232-.503-2.232-.503-5.037.686v-3l-1.75.625c-2.805.467-3.808-.286-6.25-1.625h-3v-2l-1.876-.421c-10.652-2.521-21.02-5.924-31.436-9.267l-3.06-.977c-18.28-5.842-36.459-11.962-54.596-18.23l-2.88-.992q-2.64-.91-5.28-1.83c-4.917-1.694-9.815-3.069-14.872-4.283l-3-1v-2l-3.5-.25c-3.81-.272-6.597-1.793-9.95-3.532-5.01-2.393-10.262-4.222-15.46-6.163-15.978-5.974-31.768-12.36-47.506-18.937l-2.436-1.012a890 890 0 0 1-4.504-1.885c-3.524-1.462-6.864-2.65-10.644-3.221v-2l-3.637-1.133c-6.554-2.19-12.848-4.978-19.175-7.742-.646-.28-1.292-.56-1.957-.85-11.095-4.818-22.084-9.85-33.006-15.048-5.996-2.832-11.88-5.288-18.225-7.227v-2l-2.187.25c-3.692-.328-4.946-1.942-7.813-4.25-1.989-1.08-4.012-2.1-6.059-3.066l-3.574-1.705-1.88-.885c-3.28-1.545-6.548-3.113-9.819-4.676l-1.987-.948c-23.554-11.24-46.538-23.57-69.48-35.999a694 694 0 0 0-6.847-3.634l-1.813-.956q-2.52-1.327-5.043-2.644C1017 3721 1017 3721 1016 3719a284 284 0 0 0-5-2c-2.915-1.468-5.768-3.047-8.625-4.625l-2.618-1.444c-25.632-14.255-50.677-29.688-75.41-45.443a948 948 0 0 0-6.906-4.328c-13.217-8.261-26.143-16.947-39.066-25.66l-2.745-1.849c-16.4-11.054-32.708-22.25-48.692-33.901l-4.41-3.203-1.852-1.349c-3.47-2.602-3.47-2.602-7.676-3.198l-.781-1.829c-1.342-2.39-2.48-3.367-4.719-4.913l-2.161-1.52-2.339-1.613c-6.56-4.625-12.996-9.36-19.312-14.313l-2.277-1.783q-2.19-1.718-4.38-3.44c-2.912-2.279-5.845-4.529-8.781-6.777-11.627-8.934-23.086-18.06-34.441-27.335q-2.402-1.96-4.809-3.915a986 986 0 0 1-16.17-13.48 579 579 0 0 0-10.205-8.457c-9.726-7.923-19.139-16.227-28.434-24.648A473 473 0 0 0 668 3472.5a712 712 0 0 1-16.988-15.273c-4.5-4.177-8.967-8.289-13.887-11.977-3.384-2.551-5.968-5.247-8.629-8.527-1.553-1.789-3.186-3.259-4.996-4.786-4.677-3.966-8.938-8.32-13.225-12.699-2.888-2.93-5.816-5.74-8.947-8.41-4.585-3.991-8.86-8.25-13.133-12.57l-2.44-2.452q-3.818-3.838-7.63-7.681-5.055-5.094-10.117-10.18l-2.345-2.37-2.166-2.176-1.906-1.921c-1.54-1.57-1.54-1.57-3.591-2.478l-1.39-2.317c-1.581-2.635-3.183-4.473-5.376-6.609l-2.199-2.166-2.285-2.22c-4.932-4.816-9.716-9.646-14.154-14.926-2.165-2.39-4.576-4.364-7.116-6.34-1.721-1.654-2.417-3.295-3.48-5.422a75 75 0 0 0-3.687-3.75c-3.448-3.354-6.648-6.832-9.77-10.488-1.455-1.661-2.98-3.204-4.543-4.762a216 216 0 0 1-2.875-3.313l-1.586-1.855q-1.435-1.706-2.828-3.445c-2.155-2.69-4.323-4.956-7.023-7.075L487 3292v-3h-3l-1-4h-2c-1.191-1.617-1.191-1.617-2.562-3.875-2.983-4.637-6.424-8.557-10.157-12.602-2.863-3.167-5.488-6.487-8.129-9.84-2.43-3.029-4.941-5.982-7.464-8.933-4.271-5.008-8.383-10.117-12.424-15.312-3.501-4.493-7.09-8.909-10.701-13.313-4.889-5.975-9.583-12.067-14.184-18.265A519 519 0 0 0 405.5 3190a740 740 0 0 1-11.875-15.438l-1.479-1.97a333 333 0 0 1-6.865-9.506c-1.926-3.14-1.926-3.14-4.406-4.024-1.875-1.062-1.875-1.062-3.148-4.64-1.675-4.692-4.217-8.302-7.227-12.235l-1.473-1.982c-2.201-2.936-4.41-5.627-7.027-8.205-2.277-2.912-4.445-5.858-6.062-9.188-.92-2.003-.92-2.003-3-3.875C351 3117 351 3117 350 3114l-1.562-1.563L347 3111v-2h-2l-.648-2.496c-1.703-4.414-4.18-7.782-6.977-11.567-4.614-6.356-8.837-12.787-12.754-19.593-1.47-2.627-1.47-2.627-4.621-3.344-1.031-2.609-1.43-5.24-2-8h-14l-1-22-7-2-.148-2.23-.227-2.958c-.07-.962-.14-1.925-.21-2.917-.417-2.91-1.214-5.224-2.415-7.895h-5v-8l-2.437-.688L283 3014c-.364-1.66-.692-3.328-1-5-1.151-2.524-1.151-2.524-2.625-5.063l-1.61-2.875a814 814 0 0 0-7.445-12.628C269 2986 269 2986 269 2984h-2l-1.187-2.938c-1.472-3.256-1.472-3.256-4.313-3.875L259 2977l-3-1v-7l2-1-2-3v-2c-2.574-3.33-6.378-5.018-10-7v-6h2c-4.25-8.724-8.682-17.318-13.375-25.813-8.56-15.544-16.58-31.372-24.625-47.187l-1.003-1.97c-10.083-19.806-19.88-39.777-28.669-60.198l-1.235-2.844a350 350 0 0 1-2.204-5.215c-1.05-2.528-1.05-2.528-2.889-5.773l-4-1-2-8-2.312-.125c-2.688-.875-2.688-.875-4.372-3.504-1.49-3.817-1.406-6.128-1.066-10.184.263-9.436-3.228-16.804-7.25-25.187l-9-1-1-23-7-1v8h-8l-.018-1.764q-.098-9.076-.244-18.152a1444 1444 0 0 1-.084-6.777c-.034-3.245-.086-6.489-.142-9.733l-.02-3.068-.06-2.851-.033-2.51c-.488-2.625-1.454-3.392-3.399-5.145-.542-2.39-.542-2.39-.852-5.25-1.014-6.924-3.257-13.196-5.741-19.7-1.374-3.603-2.708-7.221-4.044-10.84l-.843-2.279c-3.08-8.376-5.909-16.833-8.707-25.306l-.75-2.267a7985 7985 0 0 1-3.652-11.078c-2.2-6.683-4.432-13.356-6.661-20.03l-2.203-6.61-.911-2.733L89 2578h-1l-.621-2.738-.816-3.575-.81-3.55c-.706-3.14-.706-3.14-1.753-6.137a571 571 0 0 1-1.335-4.692l-.81-2.886-.875-3.125-.908-3.242-1.91-6.82q-1.44-5.145-2.883-10.29C72.115 2519.65 68.973 2508.35 66 2497l-4-1v-3h2c-2.086-11.16-4.672-22.159-7.444-33.167-.692-2.751-1.376-5.505-2.06-8.259l-1.316-5.254-.619-2.493c-.679-3.715-.679-3.715-2.561-6.827q-.062-3.5 0-7h-2l-.148-2.047-.227-2.703c-.07-.882-.14-1.763-.21-2.672-.414-2.569-1.127-4.336-2.415-6.578h-2c-2.296-11.522-2.296-11.522-2-17l2 3a4526 4526 0 0 0-3.308-17.035q-.567-2.9-1.123-5.8-.802-4.16-1.624-8.317l-.499-2.636c-.416-2.085-.923-4.151-1.446-6.212l-2-1 .078-3.074c-.075-3.775-.563-7.048-1.328-10.739-1.717-8.582-3.02-17.217-4.304-25.874-.733-4.894-1.508-9.75-2.528-14.594-.89-4.306-1.303-8.453-1.543-12.844l-.227-3.945L23 2287h-2l-.148-2.422c-.465-6.826-1.228-13.482-2.45-20.215C18 2262 18 2262 18 2260l-2 2-.06-2.041c-.404-13.09-.951-26.003-2.94-38.959l-2 1 .064-3.318c.133-10.117-.405-19.948-1.602-29.99-.488-4.12-.937-8.243-1.384-12.368l-.28-2.582c-1.424-13.345-2.315-26.736-3.252-40.122q-.54-7.67-1.155-15.334-.415-5.205-.819-10.414-.189-2.387-.386-4.773c-3.324-40.071-2.345-80.505-2.315-120.68q.006-9.728-.003-19.454-.007-9.5-.003-19 .003-5.623-.001-11.247c-.004-4.15.001-8.299.007-12.448l-.007-3.688c.014-5.593.18-11.051.89-16.6.378-3.049.523-6.102.68-9.169l.103-1.996q.11-2.123.218-4.247.174-3.41.355-6.817.516-9.686 1.01-19.373c.931-18.29 2.1-36.453 4.244-54.647.586-5.032.965-10.048 1.199-15.108.295-6.103 1.017-12.014 1.964-18.047.638-4.827.912-9.652 1.131-14.514.243-4.965.243-4.965 1.342-6.064.262-1.414.466-2.838.645-4.265l.357-2.78.38-3.064.84-6.54.445-3.507c2.428-19.045 4.998-38.062 7.958-57.032l.439-2.815c1.892-12.083 3.923-24.124 6.515-36.08 1.337-6.38 1.654-12.403 1.421-18.917h2l.333-1.652q1.77-8.79 3.555-17.58.658-3.248 1.311-6.494c5.782-28.707 12.405-57.161 19.582-85.546q2.139-8.47 4.267-16.942.73-2.903 1.466-5.804.87-3.455 1.726-6.914.725-2.93 1.488-5.852c.512-2.052.907-4.133 1.272-6.216l-2-2 3-1c1.238-3.713 1.356-7.313 1.563-11.188l.13-2.271q.158-2.77.307-5.541h4v-6h2l.71-3.531c1.585-7.098 3.778-14.023 5.915-20.969l.709-2.313c23.548-76.69 51.028-152.04 83.83-225.277l1.434-3.223q1.29-2.89 2.61-5.765c2.002-4.486 3.325-7.894 2.792-12.922h4c.36-1.204.722-2.408 1.094-3.648 2.204-6.6 5.338-12.747 8.406-18.977l1.892-3.878q1.433-2.942 2.87-5.882c2.38-4.866 4.718-9.75 7.041-14.643 9.123-19.217 18.67-38.211 28.697-56.972l1.585-2.976c9.541-17.892 19.331-35.627 29.563-53.133l2.1-3.604q2.03-3.48 4.08-6.95l1.848-3.165 1.653-2.81c1.393-2.37 1.393-2.37 1.171-5.362h3l.758-2.055c1.474-3.496 3.253-6.772 5.117-10.07l1.175-2.085c5.708-10.003 11.992-19.658 18.235-29.333l1.903-2.957 1.605-2.469c1.352-2.11 1.352-2.11 2.207-5.031h2l.812-2.189c1.185-2.804 2.566-5.217 4.192-7.788l1.744-2.78 1.815-2.868q1.787-2.829 3.566-5.664l1.596-2.522c1.407-2.244 1.407-2.244 2.275-5.189l2 1 .736-2.096c1.477-3.393 3.404-6.33 5.49-9.365l1.273-1.875a1967 1967 0 0 1 4.126-6.039l2.865-4.204A4180 4180 0 0 1 349 860c.4-.58.798-1.162 1.21-1.76 26.751-38.901 54.7-77.394 84.782-113.803A590 590 0 0 0 441 737a1011 1011 0 0 1 19.909-24.157 586 586 0 0 0 8.716-10.53c3.578-4.4 7.32-8.609 11.14-12.797 2.247-2.53 4.37-5.126 6.485-7.766 4.657-5.76 9.678-11.13 14.742-16.527 2.857-3.048 5.624-6.161 8.356-9.32 6.828-7.862 13.923-15.492 21.005-23.126l3.373-3.644c6.754-7.305 13.55-14.528 20.676-21.473a128 128 0 0 0 5.702-6.26c4.086-4.684 8.43-9.078 12.83-13.466l2.535-2.539q2.64-2.64 5.282-5.277 4.017-4.01 8.024-8.03l5.159-5.154 2.393-2.4c4.178-4.161 8.43-8.167 12.915-11.996 2.898-2.535 5.571-5.284 8.258-8.038a199 199 0 0 1 12.403-11.657c4.456-3.916 8.71-8.055 13.005-12.146 2.953-2.798 5.851-5.509 9.06-8.013 2.275-1.567 2.275-1.567 2.845-4.434L656 506h3c4.294-2.52 7.538-5.456 11-9a298 298 0 0 1 4.188-3.813l2.042-1.832C678 490 678 490 680 490v-2c1.487-1.354 3.044-2.631 4.625-3.875A454 454 0 0 0 698 473c15.405-13.27 15.405-13.27 21-17 .577-1.964.577-1.964.688-4.125L720 448l3.625.187c7.161-.815 12.179-6.066 17.458-10.56 3.225-2.737 6.51-5.397 9.792-8.065l2.02-1.65c5.286-4.304 10.702-8.408 16.18-12.465 4.52-3.36 8.928-6.833 13.3-10.385 6.798-5.503 13.835-10.623 20.95-15.707 4.784-3.42 9.512-6.916 14.238-10.418 12.454-9.204 25.121-18.08 37.923-26.794 4.443-3.028 8.866-6.082 13.268-9.17 9.215-6.464 18.419-12.86 28.022-18.737 3.52-2.156 6.936-4.39 10.287-6.799 4.333-3.09 8.84-5.824 13.415-8.534 6.33-3.76 12.586-7.634 18.835-11.528l3.035-1.883c5.587-3.488 11.041-7.097 16.387-10.945 3.209-2.191 6.582-3.997 10.011-5.817 4.132-2.197 8.225-4.46 12.317-6.73l2.357-1.305c5.02-2.792 9.966-5.677 14.83-8.734C1000 261 1000 261 1002 261l1-3c1.645-.72 3.32-1.37 5-2 5.894-2.941 5.894-2.941 11-7a214 214 0 0 1 4.855-2.07c3.419-1.482 6.703-3.226 10.008-4.942C1036 241 1036 241 1038 241v-2c1.116-.51 2.233-1.02 3.383-1.547 8.77-4.057 17.359-8.32 25.805-13.016 9.567-5.308 19.281-10.287 29.062-15.187l2.18-1.098a1765 1765 0 0 1 6.148-3.074l1.878-.945C1110.77 202 1110.77 202 1113 202l1-2c4.338-2.373 8.748-4.325 13.328-6.18 6.777-2.81 13.378-5.953 19.992-9.12 24.972-11.936 50.448-22.722 75.967-33.428l2.936-1.233 2.523-1.056a78 78 0 0 0 4.154-1.95c1.96-.964 3.908-1.78 5.95-2.554l2.266-.864 2.443-.924 2.573-.978 5.469-2.075a6406 6406 0 0 0 8.535-3.244c8.678-3.3 17.36-6.586 26.06-9.828l5.994-2.243q2.769-1.03 5.54-2.047l3.305-1.237 2.856-1.056c2.273-.794 2.273-.794 3.109-2.983 2.403-.611 4.812-.957 7.262-1.34 2.814-.563 2.814-.563 5.44-2.061 3.527-1.71 7.055-2.805 10.818-3.837 10.5-2.987 20.823-6.47 31.168-9.95l5.685-1.904q5.18-1.735 10.36-3.475l2.233-.745a308 308 0 0 0 5.357-1.88C1388 91 1388 91 1392 91l1-2c2.406-.746 2.406-.746 5.5-1.438 4.646-1.084 9.09-2.36 13.563-4.011C1414 83 1414 83 1418 83v-2l1.871-.332c5.253-.983 10.2-2.242 15.219-4.082C1437 76 1437 76 1440 76v-4l3.148-.113c9.628-.424 18.168-1.369 26.852-5.887v-2l2.84-.06c11.094-.44 21.209-2.59 31.91-5.44q2.44-.633 4.883-1.262 4.434-1.143 8.862-2.314c4.5-1.186 9.012-2.284 13.544-3.342l3.66-.855q7.083-1.65 14.166-3.298 6.741-1.569 13.479-3.156l6.781-1.586 3.096-.733c5.984-1.393 11.963-2.53 18.03-3.5 4.802-.793 9.545-1.848 14.304-2.868 3.23-.55 6.177-.696 9.445-.586v-2l2.188.062c2.767.023 2.767.023 5.25-.562 2.9-.566 5.614-.569 8.562-.5v-2l1.751-.115c8.547-.665 16.956-2.009 25.405-3.414 2.497-.413 4.997-.812 7.496-1.211l4.762-.787 2.266-.357c1.786-.305 3.556-.702 5.32-1.116l1-2 2.813.062c10.121-.02 21.217-.903 30.982-3.548 2.837-.661 5.647-.938 8.545-1.233l3.72-.386 3.878-.395q3.795-.387 7.59-.781l3.398-.346c2.987-.322 2.987-.322 5.555-.87 5.033-1.004 10.172-1.353 15.274-1.86q3.062-.307 6.122-.625c6.403-.642 12.687-1.208 19.123-1.018l1-2 3.258-.113c12.625-.497 25.21-1.402 37.805-2.387l2.59-.2q3.69-.285 7.382-.581l2.255-.174c3.938-.32 3.938-.32 7.81-1.072 2.755-.686 5.44-.678 8.275-.754l3.734-.114 7.782-.21 3.734-.114 3.414-.092c2.496-.16 4.568-.532 6.961-1.189 2.981-.068 5.948.002 8.93.062 3.39.007 6.728-.273 10.106-.559 9.153-.664 18.282-.636 27.454-.617M2288 22v1h5v-1zm208 43 1 2h6v-2zm1391 1343 1 2Zm54 929 1 3Zm-1 4v7h1v-7zm-1 7v6h1v-6zm-1 6-1 7c2.307-2.715 2.307-2.715 1.625-5.188zm-2 8 1 3Zm-6 32-1 6 2-2c-.319-2.108-.319-2.108-1-4m-2 8 1 3Zm-1 4 1 3Zm-3884 1 2 4v-4zm3858 106 2 2v-2zm0 2-1 4h2zM125 2683l1 3Zm45 110 1 3Zm1 3v2l2-1zm2896 856 1 2 1-2zm2 1v2l2-1zm-5 2 1 2Zm2 0 1 4h2v-4zm-56 33 1 2Zm-46 27-1 2h2zm-434 181 4 1Zm-9 3-1 2h2zm-31 8 4 1Zm-132 31c2.13 1.35 2.13 1.35 5.125.062L2366 3937c-3.403-1.215-4.933-.862-8 1m-4 0-1 2h3v-2z"/><path fill="#fefefe" d="m2097.683 1758.87 3.617-.01 4.002.003 4.248-.008q5.876-.01 11.752-.008 6.378-.003 12.756-.014 12.667-.016 25.336-.02 15.166-.01 30.334-.027c24.444-.026 48.89-.041 73.334-.054l24.29-.013a432579 432579 0 0 1 159.037-.07h3.755q60.26-.02 120.52-.085a136202 136202 0 0 1 141.372-.077h3.478c18.473-.004 36.947-.025 55.42-.051q27.858-.04 55.716-.023 16.548.01 33.096-.03 11.062-.025 22.123 0c4.198.008 8.397.009 12.595-.013 40.754-.197 40.754-.197 57.774 15.724 10.292 10.699 14.25 23.19 14.187 37.675-.353 15.308-7.065 26.8-14.829 39.585-2.838 4.704-5.585 9.46-8.346 14.208l-3.582 6.137c-5.626 9.654-11.2 19.337-16.777 29.019q-4.693 8.143-9.391 16.282c-.93 1.61-.93 1.61-1.877 3.254q-4.665 8.09-9.338 16.176a6731 6731 0 0 0-18.563 32.319c-5.413 9.492-10.84 18.972-16.433 28.36a315 315 0 0 0-4.766 8.344c-6.658 11.918-13.655 21.782-26.523 27.547l-2.785 1.406c-13.468 6.13-26.793 4.46-40.781 1.078l-3.374-.797c-15.532-3.704-30.991-7.706-46.457-11.676q-7.464-1.915-14.931-3.82l-2.138-.545a1258 1258 0 0 0-28.909-6.99c-12.266-2.819-24.473-5.845-36.672-8.941l-2.79-.708q-9.958-2.53-19.913-5.07a21442 21442 0 0 0-22.734-5.785l-2.776-.704c-11.333-2.874-22.68-5.64-34.087-8.212-9.267-2.106-18.475-4.424-27.684-6.767l-2.396-.61q-9.77-2.488-19.536-4.99a13904 13904 0 0 0-19.398-4.947 1249 1249 0 0 0-31.983-7.685c-8.633-1.967-17.218-4.107-25.797-6.296l-2.112-.538a12998 12998 0 0 1-17.144-4.392q-7.464-1.915-14.931-3.82l-2.131-.543a1309 1309 0 0 0-29.377-7.109c-16.467-3.79-32.833-7.95-49.204-12.13-4.706-1.202-9.412-2.398-14.119-3.596q-5.486-1.395-10.973-2.795c-17.592-4.501-17.592-4.501-35.247-8.745l-2.162-.501-1.77-.41c-14.724-3.415-29.395-7.022-44.044-10.74l-2.332-.593q-11.727-2.977-23.448-5.979c-14.71-3.765-29.419-7.472-44.226-10.837-12.228-2.784-24.405-5.775-36.576-8.8q-3.975-.986-7.951-1.957c-3.913-.955-7.82-1.925-11.73-2.897l-3.541-.86c-15.336-3.853-29.377-9.484-38.841-22.699-4.491-7.56-8.183-15.129-9-24l-.246-2.238c-.796-14.344 4.606-28.925 13.433-40.012 7.07-7.582 16.074-11.69 25.813-14.75 3.157-1.052 5.368-1.127 8.683-1.13M1181.45 1939.977l2.795.655c14.206 3.37 28.344 7.03 42.488 10.647q10.338 2.642 20.677 5.276l2.277.58a2448 2448 0 0 0 33.574 8.276c8.9 2.134 17.781 4.332 26.657 6.562l2.025.508q9.173 2.303 18.345 4.615 6.095 1.536 12.192 3.064l1.997.5a1260 1260 0 0 0 30.58 7.26c6.766 1.526 13.46 3.261 20.158 5.067 5.909 1.581 11.84 3.067 17.773 4.552l3.892.976q5.15 1.29 10.3 2.577l6.477 1.62c17.394 4.35 34.801 8.627 52.26 12.714 12.063 2.831 24.085 5.817 36.095 8.867l2.312.587q11.532 2.928 23.057 5.881c15.725 4.03 31.467 7.947 47.271 11.653 19.256 4.516 38.425 9.351 57.588 14.242q10.35 2.64 20.704 5.271l7.06 1.801c8.65 2.205 17.319 4.31 26.012 6.339 5.731 1.338 11.448 2.737 17.164 4.14l3.567.874q3.702.908 7.405 1.818 5.52 1.354 11.043 2.705c11.856 2.907 23.693 5.872 35.5 8.97a795 795 0 0 0 25.832 6.32c14.584 3.308 29.074 6.969 43.566 10.657q5.652 1.437 11.308 2.864 4.431 1.12 8.861 2.247 2.086.53 4.173 1.056c17.231 4.35 34.227 9.36 43.94 25.497 5.215 9.065 6.959 16.393 6.875 26.722l.023 2.881c-.036 13.354-4.917 26.673-14.27 36.444-9.575 8.306-21.19 13.86-33.947 13.866l-3.64.009-3.997-.006-4.265.007q-5.886.007-11.773.003-6.393.001-12.788.008-12.693.011-25.387.01-15.2.004-30.4.015c-24.492.016-48.984.022-73.476.027q-17.374.003-34.749.01a502024 502024 0 0 1-148.878.03h-3.76c-40.25.003-80.5.02-120.75.042a232120 232120 0 0 1-145.106.04q-27.77.005-55.541.027-27.9.022-55.802.01-16.584-.007-33.167.015-11.073.015-22.146-.001-6.312-.01-12.624.006-5.745.018-11.49-.004a801 801 0 0 0-6.068.019c-15.512-.09-26.647-5.331-37.925-15.918-10.635-11.333-14.035-24.016-13.929-39.198.319-8.733 2.363-15.581 6.605-23.279l1.024-1.863c1.938-3.462 3.96-6.866 6.023-10.254 3.48-5.716 6.806-11.519 10.14-17.32l3.883-6.739L1041 2096c7.305-12.683 14.616-25.362 22-38a5241 5241 0 0 0 28.063-48.625 2606 2606 0 0 1 16.617-28.68 512 512 0 0 0 6.078-10.64c8.087-14.478 17.868-25.006 33.804-30.993 11.085-2.801 22.905-1.739 33.887.915M2145.566 1962.656c9.807-.383 18.58 1.042 28.102 3.371q1.974.474 3.948.944c14.75 3.54 29.443 7.314 44.134 11.091q7.99 2.056 15.984 4.098l1.974.504c9.828 2.505 19.684 4.846 29.574 7.094 12.493 2.851 24.915 5.986 37.342 9.114q5.17 1.299 10.343 2.595 7.566 1.897 15.132 3.797 13.945 3.501 27.893 6.986l2.092.523 30.346 7.582 3.81.953q11.449 2.863 22.893 5.743l8.037 2.019q3.466.872 6.934 1.75c6.688 1.684 13.385 3.301 20.118 4.798 10.657 2.372 21.246 4.973 31.825 7.667l2.288.583a14753 14753 0 0 1 16.415 4.195 15264 15264 0 0 0 18.734 4.785l2.261.576c9.33 2.373 18.664 4.671 28.092 6.625 4.44.965 8.816 2.175 13.203 3.356 6.818 1.834 13.662 3.56 20.51 5.275l4.054 1.016q4.221 1.057 8.443 2.112 4.236 1.06 8.472 2.123c15.232 3.827 30.475 7.574 45.787 11.072a896 896 0 0 1 22.186 5.357q4.695 1.195 9.391 2.382 10.21 2.584 20.417 5.176 5.327 1.352 10.654 2.702l8.358 2.121 5.794 1.469q3.622.92 7.245 1.852 3.825.982 7.655 1.945l3.978 1.02 3.573.906c15.506 4.805 26.091 14.953 33.693 29.005 6.134 13.35 7.035 29.11 2.46 43.124-3.43 8.443-8.396 16.27-13.026 24.09-2.014 3.406-3.99 6.834-5.964 10.264-1.788 3.104-3.59 6.2-5.39 9.295a3562 3562 0 0 0-3.967 6.848 4429 4429 0 0 1-11.605 19.988 3065 3065 0 0 0-17.802 30.79c-2.339 4.105-4.687 8.204-7.035 12.304a2420 2420 0 0 0-3.748 6.578c-11.205 19.709-22.07 35.3-44.93 41.86-25.205 6.118-47.255-8.606-68.397-20.265-7.714-4.24-15.517-8.293-23.346-12.314-8.517-4.376-16.991-8.81-25.375-13.437-8.793-4.853-17.69-9.48-26.625-14.063-9.814-5.034-19.558-10.161-29.215-15.492-7.527-4.137-15.147-8.083-22.785-12.008-8.6-4.419-17.157-8.896-25.625-13.562-11.49-6.331-23.145-12.334-34.803-18.35-12.568-6.498-25.04-13.174-37.504-19.871a1815 1815 0 0 0-25.443-13.405 1094 1094 0 0 1-25.523-13.646c-8.382-4.594-16.875-8.963-25.376-13.329-8.243-4.235-16.38-8.598-24.414-13.214-3.694-2.086-7.463-3.984-11.269-5.853-8.216-4.075-16.323-8.336-24.418-12.645l-4.43-2.352q-4.578-2.43-9.155-4.862c-6.475-3.44-12.956-6.869-19.436-10.298l-10.561-5.59-2.118-1.121q-6.543-3.464-13.082-6.93l-11.03-5.847-2.163-1.146a3072 3072 0 0 0-23.781-12.49 2605 2605 0 0 1-10.85-5.667q-2.53-1.328-5.064-2.648c-9.494-4.968-17.988-9.821-25.455-17.674l-1.719-1.695c-9.7-10.245-12.734-23.31-12.716-36.995.508-15.71 7.885-30.24 18.997-41.185 9.438-7.899 19.862-12.298 32.004-13.469M1366.154 1651.185c7.714 4.24 15.517 8.294 23.346 12.315 9.444 4.852 18.815 9.813 28.113 14.941 8.182 4.492 16.473 8.763 24.773 13.028 7.887 4.055 15.725 8.182 23.489 12.469 8.793 4.852 17.69 9.48 26.625 14.062 9.814 5.034 19.558 10.161 29.215 15.492 8.147 4.478 16.406 8.73 24.674 12.979 7.844 4.033 15.64 8.138 23.361 12.404 9.159 5.057 18.439 9.857 27.75 14.625 10.23 5.238 20.395 10.557 30.457 16.113 7.119 3.918 14.32 7.666 21.543 11.387 9.072 4.674 18.066 9.46 27.003 14.386 8.302 4.555 16.715 8.884 25.137 13.21 8.092 4.158 16.14 8.374 24.029 12.908 4.556 2.596 9.217 4.958 13.913 7.289 7.84 3.891 15.576 7.955 23.293 12.082l10.552 5.625c5.138 2.74 10.283 5.465 15.432 8.184l2.206 1.164 2.198 1.16c11.88 6.274 23.733 12.581 35.497 19.07 5.242 2.879 10.544 5.57 15.928 8.172 16.04 7.838 28.687 18.82 34.687 35.938 4.25 15.15 1.7 31.334-5.71 45.062-8.095 13.376-19.934 23.066-35.095 27.453-10.96 1.266-21.748.854-32.46-1.777l-2.833-.67c-3.096-.738-6.187-1.494-9.277-2.256l-3.254-.799a4334 4334 0 0 1-23.557-5.884c-6.337-1.597-12.677-3.185-19.017-4.774l-2.216-.556a8245 8245 0 0 0-37.394-9.275l-16.624-4.087c-41.438-10.185-41.438-10.185-61.503-15.458-8.094-2.118-16.218-4.046-24.376-5.901-10.15-2.315-20.253-4.787-30.34-7.36l-2.122-.54q-8.636-2.206-17.269-4.423-7.521-1.93-15.047-3.85l-2.126-.542a1189 1189 0 0 0-30.404-7.292c-13.173-3.006-26.253-6.386-39.342-9.738q-5.086-1.302-10.175-2.6l-2.02-.515-7.987-2.037c-15.725-4.013-31.45-8.022-47.247-11.748-8.724-2.058-17.423-4.215-26.117-6.398l-2.027-.51a20800 20800 0 0 1-18.684-4.7c-13.61-3.428-27.215-6.84-40.902-9.947-15.007-3.41-29.917-7.198-44.832-10.99q-5.961-1.514-11.926-3.018-4.683-1.183-9.366-2.373-2.198-.557-4.397-1.112c-21.616-5.455-40.636-10.418-52.729-30.573-1.498-2.945-2.786-5.929-4-9l-1.187-2.625c-1.818-5.311-1.99-10.928-2.063-16.5l-.078-3.57c.488-10.864 4.156-19.886 9.64-29.117l1.876-3.25A1511 1511 0 0 1 1201 1767q1.755-3.018 3.508-6.04 3.452-5.942 6.93-11.87a3038 3038 0 0 0 11-18.965l1.884-3.269L1230 1717c9.114-15.824 18.238-31.643 27.481-47.393a610 610 0 0 0 4.078-7.123c8.54-14.98 20.27-25.689 37.101-30.539 25.13-6.131 46.392 7.604 67.494 19.24M2170.425 2184.653c2.936 1.536 5.884 3.05 8.833 4.562 11.5 5.912 22.927 11.934 34.252 18.175 8.217 4.507 16.541 8.796 24.876 13.079 8.764 4.506 17.45 9.134 26.078 13.898 8.687 4.769 17.502 9.28 26.32 13.8 8.515 4.368 16.956 8.832 25.29 13.54a264 264 0 0 0 13.301 6.98c7.45 3.654 14.757 7.565 22.062 11.5a1797 1797 0 0 0 27.438 14.5 964 964 0 0 1 22.75 12.126c9.626 5.304 19.378 10.341 29.158 15.354 8.51 4.365 16.95 8.825 25.278 13.533 4.5 2.534 9.053 4.9 13.689 7.175 6.2 3.042 12.265 6.289 18.312 9.625 9.147 5.043 18.395 9.862 27.688 14.625 9.195 4.713 18.327 9.5 27.324 14.582a265 265 0 0 0 13.301 6.98c10.598 5.203 20.96 10.858 31.343 16.473a930 930 0 0 0 11.626 6.16c18.921 9.941 18.921 9.941 25.656 17.68l2.184 2.508c9.23 11.618 12.98 25.81 11.816 40.492-1.903 11.127-6.338 20.321-12 30l-3.105 5.367q-3.54 6.095-7.11 12.172a2983 2983 0 0 0-11.41 19.649l-1.91 3.312a3275 3275 0 0 0-9.97 17.418q-7.258 12.768-14.701 25.43-1.51 2.574-3.013 5.154c-10.404 17.626-20.777 30.942-40.781 37.498-5.25 1.202-10.323 1.221-15.688 1.25-1.414.03-1.414.03-2.857.063-17.114.094-29.443-8.847-41.455-20.313a1053 1053 0 0 0-5.125-4.625l-2.516-2.266a561 561 0 0 0-6.234-5.484c-3.966-3.452-7.83-7.013-11.698-10.573a491 491 0 0 0-10.443-9.318c-4.038-3.529-8.003-7.14-11.984-10.734l-5-4.5-10-9-2.492-2.242a5113 5113 0 0 1-5.078-4.578c-3.746-3.38-7.495-6.749-11.305-10.055-3.966-3.452-7.83-7.013-11.698-10.573a491 491 0 0 0-10.443-9.318c-4.038-3.529-8.003-7.14-11.984-10.734l-5-4.5q-3.789-3.407-7.57-6.82c-3.746-3.38-7.495-6.749-11.305-10.055-3.966-3.452-7.83-7.013-11.698-10.573a491 491 0 0 0-10.443-9.318c-4.038-3.529-8.003-7.14-11.984-10.734l-5-4.5-10-9-2.492-2.242a5113 5113 0 0 1-5.078-4.578c-3.702-3.34-7.407-6.67-11.18-9.93-3.148-2.735-6.198-5.562-9.239-8.414-4.663-4.374-9.313-8.669-14.324-12.648-5.702-4.563-10.927-9.575-16.21-14.606-4.993-4.736-10.105-9.27-15.365-13.703-4.897-4.145-9.594-8.482-14.276-12.867a367 367 0 0 0-10.922-9.848c-4.022-3.497-7.958-7.093-11.914-10.664l-5-4.5q-3.789-3.407-7.57-6.82c-3.746-3.38-7.495-6.749-11.305-10.055-3.967-3.453-7.832-7.014-11.7-10.575a478 478 0 0 0-10.366-9.241c-3.513-3.087-6.952-6.255-10.407-9.407a405 405 0 0 0-6.59-5.84q-2.033-1.778-4.062-3.562l-2.879-2.523c-12.628-11.21-22.858-23.602-24.457-41.168-.177-17.512 5.16-32.338 17.223-45.399 22.247-20.109 47.151-19.584 72.538-6.257M1479 1351l2.738 1.145c8.195 3.925 14.297 10.136 20.74 16.393 1.83 1.758 3.721 3.433 5.647 5.087 3.353 2.892 6.618 5.875 9.875 8.875a536 536 0 0 0 11.941 10.691c3.513 3.087 6.952 6.255 10.407 9.407a405 405 0 0 0 6.59 5.84c3.409 2.96 6.74 6.004 10.062 9.062a550 550 0 0 0 12.016 10.766c4.878 4.263 9.673 8.623 14.457 12.992 4.267 3.882 8.589 7.631 13.09 11.242 4.398 3.556 8.384 7.342 12.332 11.387 2.539 2.549 5.212 4.891 7.94 7.234 2.594 2.252 5.129 4.563 7.665 6.879 3.12 2.845 6.248 5.672 9.438 8.438 3.949 3.43 7.792 6.972 11.64 10.515a387 387 0 0 0 8.422 7.547c3.39 2.938 6.7 5.961 10 9a531 531 0 0 0 12.02 10.766c2.291 2.007 4.54 4.058 6.793 6.109a235 235 0 0 0 10.75 9.125c3.517 2.842 6.782 5.76 9.937 9a99 99 0 0 0 9.5 8.563c7.429 5.945 14.201 12.591 21.097 19.138 5.461 5.162 11.089 10.115 16.815 14.979l1.775 1.507 1.782 1.512c5.213 4.459 10.2 9.137 15.184 13.85 4.228 3.974 8.574 7.692 13.199 11.205 2.569 2.088 4.822 4.39 7.148 6.746 7.603 7.332 15.334 14.402 23.59 20.992 2.28 1.9 4.344 3.88 6.41 6.008 2.846 2.932 5.803 5.518 9 8.063 5.659 4.537 10.913 9.446 16.166 14.445a355 355 0 0 0 11.952 10.849c2.673 2.334 5.276 4.735 7.882 7.143 3.386 3.127 6.798 6.206 10.313 9.188 10.907 9.6 18.792 22.14 19.968 36.824.826 16.423-5.235 31.078-15.593 43.8-8.89 9.544-22.711 17.404-35.922 17.989-14.665.193-25.257-3.163-38.178-9.945-2.977-1.56-5.964-3.1-8.951-4.641a3828 3828 0 0 1-55.2-29.064c-10.908-5.854-21.87-11.599-32.854-17.307-12.433-6.468-24.798-13.062-37.145-19.692-10.908-5.855-21.87-11.6-32.855-17.308-12.388-6.445-24.708-13.013-37.008-19.624-9.608-5.162-19.272-10.21-28.964-15.216a499 499 0 0 1-18.817-10.26c-4.335-2.47-8.731-4.753-13.208-6.951-8.548-4.238-16.977-8.685-25.399-13.168q-2.256-1.2-4.513-2.396-4.39-2.33-8.778-4.662-7.159-3.798-14.333-7.567l-2.219-1.167a8890 8890 0 0 0-10.719-5.626 3100 3100 0 0 1-26.566-14.11 3040 3040 0 0 0-36.476-19.253 2367 2367 0 0 1-16.34-8.578 1011 1011 0 0 0-10.44-5.447 1447 1447 0 0 1-7.502-3.91 469 469 0 0 0-3.668-1.892c-17.75-9.064-28.315-21.133-35.45-39.634-4.665-15.204.29-30.353 7.327-43.761a690 690 0 0 1 4.99-8.935l1.85-3.282c4.535-8.018 9.185-15.963 13.896-23.88a1089 1089 0 0 0 10.691-18.4 2642 2642 0 0 1 18.354-31.705 1489 1489 0 0 0 4.947-8.533c10.276-17.684 21.076-30.588 40.965-37.5 12.262-2.864 26.292-1.917 37.797 3.113M2089 2373c3.531 2.81 6.76 5.864 10 9a356 356 0 0 0 3.875 3.375c3.966 3.452 7.83 7.013 11.698 10.573a491 491 0 0 0 10.443 9.318c4.038 3.529 8.003 7.14 11.984 10.734l5 4.5q3.789 3.407 7.57 6.82c3.746 3.38 7.495 6.749 11.305 10.055 3.966 3.452 7.83 7.013 11.698 10.573a491 491 0 0 0 10.443 9.318c4.038 3.529 8.003 7.14 11.984 10.734l5 4.5q3.789 3.407 7.57 6.82c3.746 3.38 7.495 6.749 11.305 10.055 3.966 3.452 7.83 7.013 11.698 10.573a491 491 0 0 0 10.443 9.318c4.038 3.529 8.003 7.14 11.984 10.734l5 4.5q3.789 3.407 7.57 6.82c3.79 3.418 7.583 6.827 11.43 10.18 6.628 5.778 13.126 11.702 19.625 17.625 3.078 2.803 6.168 5.585 9.313 8.313 3.894 3.385 7.692 6.873 11.49 10.365a1039 1039 0 0 0 20.517 18.392c4.925 4.325 9.769 8.74 14.633 13.133 3.7 3.337 7.402 6.665 11.172 9.922 3.148 2.735 6.198 5.562 9.239 8.415 4.706 4.413 9.404 8.744 14.448 12.773 6.002 4.802 11.532 10.067 17.122 15.335 3.099 2.919 6.262 5.747 9.488 8.524 3.482 3.036 6.873 6.174 10.285 9.289a366 366 0 0 0 6.856 6.039c12.491 10.962 22.127 22.765 23.261 39.945.496 12.453-.408 22.415-6.449 33.43l-1.441 2.684c-1.309 2.253-1.309 2.253-3.559 5.316h-2l-.65 1.635c-1.835 3.214-4.339 5.62-6.952 8.197l-1.682 1.681a1250 1250 0 0 1-3.536 3.513 1457 1457 0 0 0-5.332 5.312c-5.247 5.23-10.504 10.39-16.144 15.2-2.752 2.36-5.373 4.858-8.017 7.337a267 267 0 0 1-14.816 12.785c-2.698 2.199-5.335 4.452-7.964 6.732-26.79 23.237-26.79 23.237-39.907 28.608l-2.754 1.129c-14.684 5.274-29.135 4.152-43.246-2.129a76 76 0 0 1-10-6l-1.812-1.223c-4.003-3.03-6.81-6.844-9.676-10.918l-1.314-1.853c-5.411-7.673-10.646-15.466-15.885-23.256l-3.293-4.884-6.74-10c-4.487-6.66-8.988-13.31-13.49-19.962l-4.272-6.315a147000 147000 0 0 0-19.768-29.214l-1.417-2.094a37119 37119 0 0 1-25.693-38.04 20111 20111 0 0 0-23.528-34.792q-10.756-15.872-21.487-31.762-12.119-17.941-24.25-35.874l-1.426-2.109-7.106-10.502-12.903-19.074-7.19-10.628-2.875-4.25-1.437-2.125-5.75-8.5-10.056-14.866q-7.97-11.784-15.952-23.56a9769 9769 0 0 1-11.465-16.963 2949 2949 0 0 0-8.515-12.542 2479 2479 0 0 1-5.517-8.14 743 743 0 0 0-2.576-3.775c-6.435-9.376-12.851-19.123-13.607-30.779l-.273-3.91c-.583-16.817 5.163-30.026 16.363-42.399 20.028-19.132 48.304-22.437 71.91-7.691M1693 1129c8.447 6.455 15.126 14.337 20.906 23.2l1.339 2.024q1.407 2.13 2.808 4.262c2.456 3.737 4.928 7.464 7.4 11.19l1.47 2.218a656 656 0 0 0 11.327 16.481c5.235 7.394 10.302 14.89 15.313 22.438a3443 3443 0 0 0 19.5 29.062l6.693 9.866c5.551 8.183 11.085 16.377 16.619 24.572l6.367 9.425c.524.776 1.048 1.55 1.587 2.35q8.082 11.959 16.171 23.912a59192 59192 0 0 1 24 35.5c15.32 22.676 30.65 45.345 46 68a54362 54362 0 0 1 35.157 51.95 19495 19495 0 0 1 20.615 30.544q4.453 6.612 8.95 13.195 2.51 3.683 5.008 7.376a825 825 0 0 0 3.304 4.816c9.55 14.152 12.823 26.777 11.466 43.619-.883 4.26-2.225 8.038-4 12l-.77 2.047c-5.879 14.018-18.485 23.495-31.859 29.613-15.179 5.779-29.61 4.563-44.371-1.66-6.997-3.52-12.32-8.024-17.684-13.676-2.493-2.501-5.12-4.682-7.879-6.887-4.13-3.307-7.88-6.773-11.57-10.558-3.606-3.629-7.537-6.89-11.425-10.21-8.12-6.943-16.034-14.04-23.776-21.404-4.49-4.244-9.083-8.153-14.041-11.847L1806 1531v-2l-1.621-.656c-3.237-1.829-5.764-4.3-8.441-6.844l-3.485-3.262-1.756-1.65a602 602 0 0 0-16.634-15.025c-3.41-2.962-6.74-6.005-10.063-9.063a550 550 0 0 0-12.016-10.766c-4.878-4.263-9.673-8.623-14.457-12.992-4.267-3.882-8.589-7.631-13.09-11.242-3.517-2.842-6.782-5.76-9.937-9a101 101 0 0 0-9.562-8.625c-5.642-4.513-10.873-9.404-16.104-14.383a358 358 0 0 0-12.024-10.92 458 458 0 0 1-6.685-5.947l-2.559-2.309L1665 1404l-4.937-4.437a2153 2153 0 0 1-10.688-9.688c-3.056-2.783-6.125-5.545-9.25-8.25-2.978-2.582-5.872-5.241-8.753-7.93-4.434-4.135-8.871-8.17-13.622-11.945-7.332-5.883-14.02-12.47-20.833-18.938-5.647-5.339-11.424-10.442-17.48-15.312-4.398-3.556-8.384-7.342-12.332-11.387-2.539-2.549-5.212-4.891-7.94-7.234-3.56-3.09-7.02-6.289-10.497-9.469a283 283 0 0 0-6.855-5.973c-11.26-9.924-18.54-21.635-20.048-36.804-.952-16.795 2.271-31.152 13.613-44.22 3.718-4.024 7.638-7.84 11.56-11.663q1.73-1.714 3.458-3.43c5.154-5.097 10.348-10.099 15.858-14.812 2.937-2.537 5.736-5.22 8.559-7.883a265 265 0 0 1 15.62-13.523c2.543-2.082 4.962-4.252 7.38-6.477 5.565-5.063 11.455-9.654 17.411-14.243a343 343 0 0 0 5.14-4.093c21.832-17.526 47.91-22.548 72.636-7.289M1952 1003l2.055 1.395c9.3 7.093 14.191 17.507 18.054 28.199l1.158 3.144c1.254 3.417 2.495 6.84 3.733 10.262l1.294 3.562a7446 7446 0 0 1 8.881 24.615q3.124 8.697 6.255 17.393l.692 1.925c3.736 10.381 7.528 20.74 11.338 31.094a1465 1465 0 0 1 9.096 25.408c2.862 8.237 5.844 16.43 8.835 24.62q2.628 7.203 5.25 14.406l1.096 3.012c3.81 10.462 7.602 20.931 11.388 31.402l1.044 2.886q6.556 18.134 13.093 36.275l5.55 15.402.697 1.932a24479 24479 0 0 0 29.513 81.385q1.032 2.83 2.07 5.656l1.08 2.943.971 2.642c3.864 11.014 4.43 23.253.857 34.442l-.777 2.453c-2.32 6.492-5.678 11.404-10.223 16.547l-1.96 2.281c-10.589 11.493-24.37 17.444-39.794 19.13-14.095.572-27.62-4.158-38.443-13.258-8.389-7.954-14.295-17.381-20.553-27.028q-2.626-4.001-5.26-7.998a4197 4197 0 0 1-3.42-5.204c-3.756-5.716-7.592-11.36-11.57-16.923-6.555-9.22-12.8-18.642-19.062-28.062a7068 7068 0 0 0-28.25-42.188l-1.812-2.684q-4.572-6.772-9.146-13.543a61526 61526 0 0 1-20.908-30.975 5776 5776 0 0 1-22.303-33.278 2568 2568 0 0 0-14.207-21.082c-17.443-25.66-34.866-51.341-51.992-77.215a474 474 0 0 0-6.765-9.914c-6.08-8.742-10.735-16.725-13.555-27.059l-.598-1.914c-2.958-15.336 1.263-30.204 9.598-43.086 22.652-30.09 75.816-41.156 110.145-51.43 1.619-.497 3.223-1.043 4.824-1.597 18.664-6.1 36.379-.827 52.031 10.027M1933.508 2528.848c15.275-.544 28.76 5.185 39.945 15.418 8.104 8.7 14.541 18.49 21.064 28.387 2.863 4.344 5.743 8.679 8.62 13.015l1.752 2.644c6.294 9.488 12.682 18.91 19.084 28.325 3.946 5.805 7.874 11.62 11.761 17.465a3012 3012 0 0 0 11.813 17.609l1.746 2.585 3.6 5.329c10.592 15.681 21.153 31.383 31.614 47.154a1833 1833 0 0 0 15.404 22.786c6.39 9.321 12.71 18.689 19.026 28.06l1.888 2.8a6507 6507 0 0 1 27.683 41.355c4.538 6.836 9.129 13.633 13.77 20.4a3057 3057 0 0 1 18.591 27.422q1.713 2.553 3.435 5.1 2.546 3.772 5.075 7.556l1.537 2.264c8.81 13.239 11.337 26.717 10.084 42.478-3.13 15.047-12.143 28.897-24.812 37.625-7.748 4.572-16.174 7.873-24.484 11.27a996 996 0 0 0-7.49 3.105c-13.423 5.553-27.145 10.235-40.903 14.88q-4.324 1.464-8.64 2.948A620 620 0 0 1 2082 2981l-1.94.633c-15.797 5.078-31.63 5.407-46.685-2.32-13.106-7.702-22.433-17.328-27.746-31.622l-.904-2.38c-2.842-7.518-5.571-15.077-8.264-22.65-1.495-4.201-2.998-8.4-4.5-12.599l-.96-2.686c-3.886-10.866-7.82-21.714-11.751-32.564a6324 6324 0 0 1-13.812-38.437 865 865 0 0 0-8.438-22.812c-3.02-7.815-5.798-15.695-8.5-23.626-4.734-13.873-9.722-27.648-14.752-41.417a7450 7450 0 0 1-13.9-38.38c-3.907-10.86-3.907-10.86-5.831-16.225-4.442-12.382-8.885-24.754-13.713-36.99-2.594-6.596-4.912-13.274-7.179-19.988a1394 1394 0 0 0-11.345-32.082l-1.065-2.918-.934-2.535c-4.48-13.778-2.022-27.682 4.219-40.402 8.793-15.144 22.591-23.756 39-29 3.497-.837 6.924-.935 10.508-1.152M1778.688 2660.75l2.857-.062c13.77-.076 26.29 5.397 36.271 14.898 9.443 10.44 13.764 22.409 18.2 35.535 1.259 3.683 2.587 7.338 3.926 10.991a3448 3448 0 0 1 4.005 10.992L1845 2736l1.86 5.113 17.14 47.136 2.002 5.507q2.483 6.822 4.958 13.645a7055 7055 0 0 0 10.548 28.869l1.148 3.121 4.64 12.6c3.903 10.591 7.792 21.184 11.524 31.837 3.002 8.552 6.16 17.047 9.305 25.547l3.633 9.836.866 2.346c7.615 20.627 12.119 37.157 3.09 58.478-7.308 14.475-19.621 24.414-34.714 29.965-6.745 2.067-12.94 2.277-19.969 2.23h-3.492q-3.662-.006-7.323-.024c-3.649-.018-7.297-.02-10.946-.02-11.55-.018-23.087-.17-34.63-.627l-2.963-.114c-16.91-.751-30-7.02-41.677-19.445-2.54-3.216-4.831-6.525-7-10l-1.463-2.298c-5.696-10.012-6.415-21.4-7.32-32.627-.377-4.677-.8-9.35-1.217-14.024l-.25-2.855c-.76-8.565-1.728-17.097-2.75-25.633-1.806-15.193-3.251-30.41-4.605-45.649-.668-7.467-1.359-14.916-2.329-22.352-1.632-12.59-2.764-25.24-4.004-37.874-2.143-21.826-4.335-43.645-6.994-65.415-2.212-18.575-1.516-35.722 9.932-51.273 12.127-14.626 28.066-21.15 46.688-21.25M2117.156 963.672l3.706.006q3.862.01 7.725.04c3.875.032 7.75.042 11.624.048 11.087.034 22.163.148 33.238.687l2.387.116c15.133.845 29.125 6.933 39.465 18.283 7.658 9.682 13.304 20.087 14.722 32.453l.246 2.102c.253 2.197.494 4.394.731 6.593l.228 2.094a2159 2159 0 0 1 1.584 15.343l.523 5.141q.556 5.457 1.107 10.914a38763 38763 0 0 0 3.043 29.93c2.019 19.816 4.07 39.63 6.121 59.443q1.041 10.05 2.076 20.102l1.158 11.224.285 2.765a5574 5574 0 0 0 3.18 30.135q.724 6.693 1.438 13.388c.303 2.805.62 5.608.937 8.412 1.016 9.333 1.501 18.577 1.539 27.968l.017 3.056c-.076 14.012-5.424 25.15-15.048 35.398-13.815 12.992-30.397 16.306-48.68 16.027-6.976-.285-12.346-1.969-18.508-5.34l-2.945-1.574c-19.428-11.355-25.344-33.125-32.432-53.16a2951 2951 0 0 0-4.066-11.405l-.704-1.964-1.42-3.96-2.15-6.01c-4.892-13.678-9.927-27.303-14.97-40.927a6046 6046 0 0 1-21.07-57.912c-4.787-13.354-9.67-26.66-14.75-39.904-3.088-8.058-5.99-16.166-8.802-24.325-2.229-6.452-4.586-12.858-6.94-19.265-6.42-17.528-10.16-33.97-2.31-51.883 7.2-14.266 17.826-24.562 32.559-30.711 8.424-2.741 16.344-3.423 25.156-3.328M1623.094 2729.297c14.474 12.486 18.976 27.261 20.906 45.765q.242 2.186.488 4.373c1.566 14.206 2.862 28.444 4.117 42.68.779 8.762 1.7 17.454 2.917 26.166.903 7.03 1.452 14.094 2.04 21.157l.571 6.726q.257 3.023.51 6.045c.251 2.67.54 5.311.883 7.969 2.156 17.375 1.132 33.31-9.78 47.674L1644 2940l-1.898 2.523c-6.278 7.398-15.175 12.024-24.102 15.477l-2.594 1.098c-15.095 3.998-30.918 1.345-44.856-4.968-2.863-1.269-5.759-2.425-8.671-3.575-18.786-7.471-33.395-14.727-42.879-33.555-5.831-13.562-6.903-25.503-4.715-40.008l.413-2.857c.448-3.088.906-6.174 1.364-9.26q.478-3.267.953-6.533a8667 8667 0 0 1 1.988-13.561c.96-6.518 1.904-13.038 2.845-19.558q1.95-13.52 3.945-27.03 1.155-7.814 2.28-15.633.647-4.451 1.313-8.9a921 921 0 0 0 .841-5.848c2.35-15.487 8.65-28.608 20.773-38.812 21.465-15.371 50.837-15.485 72.094.297M2373.938 1015.625l2.533-.074c13.512-.06 26.237 4.713 38.486 9.975 1.998.857 4.005 1.69 6.014 2.52 7.156 3.004 13.8 6.263 20.029 10.954l2.781 2.027c9.864 8.77 17.448 22.298 18.408 35.592.08 2.9.084 5.792.061 8.694l.023 2.935-.007 2.928-.007 2.59c-.308 3.852-1.012 7.563-1.73 11.357-.802 4.358-1.425 8.736-2.045 13.123l-.413 2.888q-.663 4.652-1.321 9.303l-.93 6.525a3649 3649 0 0 0-4.472 32.343l-.397 2.964c-.615 4.603-1.225 9.207-1.821 13.813-1.133 8.615-2.454 17.17-4.107 25.703l-.464 2.462c-2.886 14.33-10.68 25.835-22.372 34.565-14.14 9.331-30.06 11.102-46.59 8.692A56.4 56.4 0 0 1 2368 1255l-2.527-1.031c-13.5-6.157-23.704-16.851-29.367-30.594-1.294-3.948-1.995-7.799-2.614-11.898l-.385-2.5c-1.459-9.828-2.318-19.707-3.17-29.602q-.48-5.49-.972-10.977l-.24-2.69c-.563-6.22-1.25-12.417-2.006-18.615-.975-8.058-1.682-16.139-2.396-24.223a539 539 0 0 0-2.865-25.468c-2.952-21.934-3.925-41.79 9.542-60.402l2.25-3.187c11.125-11.378 24.787-18.164 40.688-18.188"/><path fill="#fdfefe" d="M1428.36 2732.027c10.085 7.535 17.058 19.114 19.265 31.473 1.72 16.716-.294 33.19-11.074 46.672-9.04 10.655-20.646 18.375-34.551 20.828-19.458 1.518-33.784-1.33-49-14-12.097-11.934-17.075-26.255-17.375-42.875.038-14.72 6.113-28.372 16.18-39.184 22.759-20.127 51.815-19.188 76.554-2.914M2607 1149l2.781 1.215c12.87 6.236 23.39 18.132 28.094 31.66 4.691 15.618 2.999 31.951-4.555 46.32A101 101 0 0 1 2628 1236l-1.43 1.98c-7.149 9.149-18.551 15.542-29.898 17.633-18.802 1.98-34.366-.936-49.95-12.27-9.652-7.855-15.953-19.04-18.535-31.156A97 97 0 0 1 2528 1208l-.152-3.402c-.393-15.475 3.218-29.1 13.527-40.973 16.73-17.427 42.934-25.27 65.625-14.625"/><path d="M128 2690c2.014 3.021 3.204 5.798 4.531 9.172l1.457 3.703.753 1.93q1.129 2.889 2.27 5.773c2.261 5.769 4.357 11.448 5.989 17.422h-7v8h-8zM2552 3893v11h-47c5.933-2.966 10.43-4.602 17-3v-2l3.75-1 2.11-.562c2.14-.438 2.14-.438 6.14-.438v-2c13.22-4.39 13.22-4.39 18-2M3943 2324h1c.55 10.13-.314 19.786-1.812 29.813l-.501 3.487-.519 3.282-.46 2.945c-.708 2.473-.708 2.473-2.253 3.871-2.358 2.596-1.86 5.226-1.896 8.649l-.04 2.089c-.041 2.205-.063 4.409-.081 6.614q-.035 3.285-.092 6.571a742 742 0 0 0-.075 5.994c-.286 3.895-1.073 6.988-2.271 10.685l2 1v2h-9l.621-2.457.816-3.356.81-3.269c.594-3.091.941-5.94 1.171-9.063.528-6.403 1.945-12.496 3.457-18.73l.777-3.277c1.047-4.414 2.099-8.825 3.173-13.232 1.518-6.348 2.709-12.554 3.3-19.053q.22-2.25.445-4.497l.208-2.093c.301-2.677.743-5.323 1.222-7.973M3072 3654v10h-16v8h-8l-1-7a1356 1356 0 0 1 7.813-5l2.236-1.445 2.158-1.367 1.984-1.27C3063 3655 3063 3655 3066 3655l1 3 2 1v-4c2-1 2-1 3-1M2810 3797v3h-3l-1 2-6-2v8h-8v2h-7v-2h-6c3.844-3.313 8.338-5.108 12.938-7.125l2.42-1.09c10.311-4.562 10.311-4.562 15.642-2.785M2368 3936v5c-8.284 2.636-15.681 3.222-24.262 3.04-4.348-.046-8.44.346-12.738.96v-2h4v-2l2.063.125c3.546-.15 6.534-1.128 9.937-2.125 3.813-.75 3.813-.75 7-1l2 2 1-3 3 1c6.533-2 6.533-2 8-2M304 3044c2.325 2.325 3.794 4.046 5.48 6.758l1.338 2.144 1.37 2.223 1.404 2.246C317 3062.862 317 3062.862 317 3064h-13zM3263 464h17v8h2v4h-2l-1 2q-2.597-2.089-5.187-4.187l-2.918-2.356c-2.76-2.343-5.335-4.897-7.895-7.457M3152 3595v13h-18c3.566-3.566 6.671-6.403 10.688-9.312l2.886-2.114C3150 3595 3150 3595 3152 3595M3184 3571v13h-17c3.592-3.592 6.695-6.403 10.75-9.312l2.922-2.114C3183 3571 3183 3571 3184 3571M3309 504h19v8c-9.236 1.07-9.236 1.07-13.512-1.523-1.976-1.74-3.798-3.458-5.488-5.477zM160 2772h2l.953 2.309 1.297 3.128 1.371 3.313a229 229 0 0 0 3.691 8.188c1.425 3.147 2.141 5.55 1.688 9.062h2v2h-3l-2-8-2.312-.125c-2.688-.875-2.688-.875-4.5-3.125-1.76-5.558-1.42-10.967-1.188-16.75M2305 3948v4h-2v2q-5.282-.212-10.562-.437l-3.002-.12c-5.212-.225-10.29-.584-15.436-1.443v-1c4.227-.702 8.457-1.384 12.688-2.062l3.63-.604 3.506-.557 3.222-.523c2.917-.25 5.134.014 7.954.746M2681 3847v9h-23c2.57-1.714 4.557-2.683 7.414-3.727l2.555-.937 2.656-.961 2.68-.984c6.549-2.391 6.549-2.391 7.695-2.391M3264 3507v13h-15c3.21-3.21 6.37-6.302 9.75-9.312l2.36-2.114C3263 3507 3263 3507 3264 3507M144 2731c1.6 2.4 2.65 4.351 3.727 6.977l.937 2.28.961 2.368.984 2.39C153 2750.863 153 2750.863 153 2752h-9zM3016 3685v7c-6.028 4.287-10.713 4.474-18 4 8.448-7 8.448-7 12-7q1.53-1.47 3-3c2-1 2-1 3-1M2494 3906l1 2h2v4c-3.268 1.634-6.85 1.185-10.437 1.188l-2.354.037c-3.921.01-5.875-.002-9.209-2.225 6.504-2.009 12.178-3.386 19-3z"/><path fill="#010002" d="M2064 0h40v2c-3.261 1.087-5.427 1.047-8.848.914l-3.525-.133-3.69-.156-3.607-.133c-6.809-.27-13.56-.707-20.33-1.492z"/><path d="m2722 3833 1 3h-3v3l-19 1c2.826-2.826 6.262-3.814 9.938-5.187l2.208-.866c5.49-2.068 5.49-2.068 8.854-.947M3903 2505h1v23l-6 1c0-3.411.491-6.63 1-10h3l1-6-2-1zM3730 1030h5v2h2v7l-2 1-1 2c-.87-1.24-1.72-2.492-2.562-3.75l-1.442-2.11c-.996-2.14-.996-2.14-.648-4.406zM3303 3473l1 2h2v2h4v2l2 1h-16c4-5 4-5 7-7M2979 3706h6l-1 6h-14c3.625-2.718 4.809-3.418 9-4zM2736 3826v6h-15c2.7-1.8 5.067-2.934 8.063-4.125l2.66-1.07C2734 3826 2734 3826 2736 3826M3471 3305l1 2h2v2h4v2l2 1-13 1c0-3.908 1.506-5.116 4-8M3132 3608l2 1-2 7h-3v2h-3v-2l-4-1z"/><path fill="#000001" d="M3708 990c3 0 3 0 4.688 1.313C3714 993 3714 993 3714 996h-2v6c-2.523-3.124-4.273-6.38-6-10h2z"/><path d="M256 2969c2.375.25 2.375.25 5 1 1.375 1.875 1.375 1.875 2 4l-1 3-6-1zM2576 3884v4h-15c4.653-3.102 9.415-4.338 15-4M3503 3268h1v8l-3.437.875L3497 3278l-1 2-2-1q2.215-2.754 4.438-5.5l2.496-3.094zM248 2949c3.096 3.509 4.742 6.492 6 11l-8-4v-6zM3120 3617v7h-9c6.816-7 6.816-7 9-7M2493 62h3v2h9v2h2v2h-6l2-1v-2c-.603.095-1.207.19-1.828.29l-2.422.335-2.39.352c-2.682.026-4.087-.611-6.36-1.977h3zM3895 2534h1c.209 6.406.158 11.93-2 18h-1c-.209-6.406-.158-11.93 2-18"/><path fill="#010000" d="m3527 3239 2 1c-.365 2.702-.699 4.584-2.312 6.813C3525 3248 3525 3248 3521 3248c1.527-3.436 3.6-6.12 6-9"/><path d="M3717 1006h2v2h3v3h-2v5c-2.011-2.56-3.628-5.046-5-8h2zM728 449c-4.75 4-4.75 4-7 4l-1 2v-7c3.403-1.215 4.933-.862 8 1M296 3031c2.4 2.88 4.473 5.564 6 9h-6zM41 2399c1.46 2.647 2 3.894 2 7l2 1h-2l1 4h2l-1 5h-2c-2.296-11.522-2.296-11.522-2-17"/><path fill="#000002" d="M72 1440h4l-3 13h-1z"/><path d="M3285 478h2v2h3v3h-2l-1 2-5-5h3z"/><path fill="#000002" d="M1440 72h12c-2.855 1.903-4.42 2.462-7.687 3.125l-2.45.508L1440 76z"/><path fill="#000100" d="m2751 3819 1 2c-1.906 2.435-3.006 3.002-6.062 3.813L2743 3825l-2-2z"/><path fill="#010000" d="M2992 3699v5h-8c6.129-5 6.129-5 8-5"/><path d="M3032 3675v5h-8c6.129-5 6.129-5 8-5"/><path fill="#000100" d="M3884 1400h4v8h-2z"/><path fill="#000001" d="M1470 64h12c-3.628 1.814-6.039 2.57-10 3l-2-1z"/><path d="M3800 1176h4v8c-2.154-2.622-3.4-4.644-4-8M3790 1149c1.563 1.188 1.563 1.188 3 3-.312 2.688-.312 2.688-1 5-1.562-1.75-1.562-1.75-3-4 .313-2.25.313-2.25 1-4M3250 453h6v5a250 250 0 0 1-6-4z"/><path fill="#000100" d="m2962 3716 3 2c-2.25 1.625-2.25 1.625-5 3-2.312-.812-2.312-.812-4-2z"/><path d="m3726 1022 2 1v7l-4-5 2-1zM649 511l2 2-3 2c0-3 0-3 1-4"/><path fill="#010000" d="m807 3587 5 2-2 1z"/><path fill="#000100" d="M3045 3667v3l-3-1zM963 279l2 2h-3z"/><path d="m1417 3890 1 2-3-1zM675 489l3 1h-3zM320 899l1 2-2-1z"/><path fill="#010002" d="m664 499 1 2-2-1z"/><path d="m671 492 3 1ZM1023 245l3 1Z"/><path fill="#000001" d="M1119 195h2l-1 2z"/><path fill="#000100" d="m2551 3891 2 1Z"/><path d="m3532 3238 2 1ZM3532 3236l2 1Z"/><path fill="#010000" d="m351 3120 2 1ZM3622 3116l2 1ZM658 504l2 1Z"/><path d="m959 281 2 1ZM2654 113l2 1Z"/></svg>